HIERARCHY
ROOT Hips
{
 OFFSET 0.000000 0.000000 0.000000
 CHANNELS 6 Xposition Yposition Zposition Yrotation Xrotation Zrotation
 JOINT Chest
 {
  OFFSET 0.000000 10.388337 0.005184
  CHANNELS 3 Yrotation Xrotation Zrotation
  JOINT Chest2
  {
   OFFSET 0.000000 10.458247 -0.010579
   CHANNELS 3 Yrotation Xrotation Zrotation
   JOINT Chest3
   {
    OFFSET 0.000000 10.415828 0.000000
    CHANNELS 3 Yrotation Xrotation Zrotation
    JOINT Chest4
    {
     OFFSET 0.000000 10.405206 0.000000
     CHANNELS 3 Yrotation Xrotation Zrotation
     JOINT Neck
     {
      OFFSET 0.000000 15.720090 0.000000
      CHANNELS 3 Yrotation Xrotation Zrotation
      JOINT Head
      {
       OFFSET 0.000000 9.732643 -0.022378
       CHANNELS 3 Yrotation Xrotation Zrotation
       End Site
       {
        OFFSET 0.000000 18.603619 -0.011814
       }
      }
     }
     JOINT RightCollar
     {
      OFFSET -3.167735 10.388953 0.000000
      CHANNELS 3 Yrotation Xrotation Zrotation
      JOINT RightShoulder
      {
       OFFSET -14.584825 0.000000 0.000000
       CHANNELS 3 Yrotation Xrotation Zrotation
       JOINT RightElbow
       {
        OFFSET 0.000000 -31.921689 0.000000
        CHANNELS 3 Yrotation Xrotation Zrotation
        JOINT RightWrist
        {
         OFFSET 0.000000 -25.835217 0.000000
         CHANNELS 3 Yrotation Xrotation Zrotation
         End Site
         {
          OFFSET 0.000000 -19.128920 0.000000
         }
        }
       }
      }
     }
     JOINT LeftCollar
     {
      OFFSET 3.167735 10.388953 0.000000
      CHANNELS 3 Yrotation Xrotation Zrotation
      JOINT LeftShoulder
      {
       OFFSET 14.584825 0.000000 0.000000
       CHANNELS 3 Yrotation Xrotation Zrotation
       JOINT LeftElbow
       {
        OFFSET 0.000000 -31.921689 0.000000
        CHANNELS 3 Yrotation Xrotation Zrotation
        JOINT LeftWrist
        {
         OFFSET 0.000000 -25.835217 0.000000
         CHANNELS 3 Yrotation Xrotation Zrotation
         End Site
         {
          OFFSET 0.000000 -19.128920 0.000000
         }
        }
       }
      }
     }
    }
   }
  }
 }
 JOINT RightHip
 {
  OFFSET -8.403278 -0.025659 -0.002592
  CHANNELS 3 Yrotation Xrotation Zrotation
  JOINT RightKnee
  {
   OFFSET 0.000000 -44.040977 0.002477
   CHANNELS 3 Yrotation Xrotation Zrotation
   JOINT RightAnkle
   {
    OFFSET 0.000000 -42.951162 0.004189
    CHANNELS 3 Yrotation Xrotation Zrotation
    JOINT RightToe
    {
     OFFSET 0.000000 -5.494238 12.197485
     CHANNELS 3 Yrotation Xrotation Zrotation
     End Site
     {
      OFFSET 0.000000 -1.538716 6.371628
     }
    }
   }
  }
 }
 JOINT LeftHip
 {
  OFFSET 8.403278 -0.025659 -0.002592
  CHANNELS 3 Yrotation Xrotation Zrotation
  JOINT LeftKnee
  {
   OFFSET 0.000000 -44.040977 0.002477
   CHANNELS 3 Yrotation Xrotation Zrotation
   JOINT LeftAnkle
   {
    OFFSET 0.000000 -42.951162 0.004189
    CHANNELS 3 Yrotation Xrotation Zrotation
    JOINT LeftToe
    {
     OFFSET 0.000000 -5.494238 12.197485
     CHANNELS 3 Yrotation Xrotation Zrotation
     End Site
     {
      OFFSET 0.000000 -1.538716 6.371628
     }
    }
   }
  }
 }
}
MOTION
Frames: 8
Frame Time: 0.008333
0.000000 92.319940 0.000000 0.000000 -5.767889 0.000000 0.000000 11.653876 0.000000 0.000000 -5.885988 0.000000 0.000000 -0.000000 0.000000 0.000000 -0.000000 0.000000 0.000000 12.528808 0.000000 0.000000 0.711711 0.000000 0.000000 -0.000000 0.000000 0.000000 0.000000 -90.000000 0.000000 -2.309063 0.000000 0.000000 2.309063 0.000000 0.000000 -0.000000 0.000000 0.000000 -0.000000 90.000000 0.000000 -2.309063 0.000000 0.000000 2.309063 0.000000 0.000000 8.520374 0.000000 0.000000 1.905768 0.000000 -0.000000 -4.658254 0.000000 0.000000 -0.000000 0.000000 0.000000 8.520374 0.000000 0.000000 1.905768 0.000000 -0.000000 -4.658254 0.000000 0.000000 -0.000000 0.000000
-6.390022 90.741020 426.958526 95.058511 -10.346898 -1.708973 0.711803 1.137352 3.143698 0.007448 0.016247 0.054734 0.013366 0.029126 0.098140 0.416862 0.852339 2.908996 8.374667 23.557430 5.852226 13.565539 7.777902 8.394375 -0.095326 9.101327 0.469159 -0.331795 8.239800 -11.034737 -6.090850 -18.490755 17.351835 -3.766931 -9.093144 -13.810505 2.716027 7.172084 1.266370 0.234700 -3.260452 2.629014 -2.481117 2.260149 -0.146261 0.470453 -1.503916 0.375970 1.691392 17.459044 4.843492 -9.256081 12.818514 -0.178851 -14.292092 -19.353385 -0.708571 0.012939 -0.057771 0.114957 11.729244 -2.825745 10.125711 19.234457 -6.161875 -0.226416 -8.654794 18.793604 -8.615862 -0.203001 -1.280104 -0.428754
-6.370443 90.736673 426.890439 95.158647 -10.291825 -1.641703 0.684186 1.074792 3.088637 0.008036 0.015955 0.054112 0.014420 0.028605 0.097035 0.449907 0.840612 2.891522 8.345204 23.566631 5.829711 13.518607 7.796283 8.362089 -0.116650 9.105202 0.452544 -0.382923 8.219120 -11.039374 -6.147684 -18.455838 17.426100 -3.770385 -8.981789 -13.818933 2.727937 7.193523 1.266146 0.252997 -3.214548 2.592742 -2.461009 2.300137 -0.066403 0.386699 -1.325698 0.207902 1.605716 17.439515 4.732137 -9.263257 12.810510 -0.198924 -14.282466 -19.392239 -0.679015 0.011724 -0.022158 0.111084 11.471383 -2.892390 10.003496 19.207781 -6.022174 -0.191907 -8.503709 18.833086 -8.409433 -0.171539 -1.189596 -0.486295
-6.352516 90.731746 426.817180 95.260933 -10.220078 -1.590361 0.651818 0.999632 3.047657 0.008703 0.015749 0.053570 0.015618 0.028237 0.096070 0.487213 0.832373 2.875100 8.316224 23.568762 5.805752 13.472721 7.801664 8.326569 -0.136704 9.102888 0.437903 -0.425451 8.201948 -11.059139 -6.227500 -18.415994 17.527688 -3.784220 -8.872283 -13.782720 2.739371 7.212222 1.269593 0.284050 -3.162803 2.561656 -2.474443 2.297868 -0.015087 0.296766 -1.167205 0.063713 1.531792 17.404162 4.639271 -9.274533 12.794399 -0.221783 -14.288967 -19.418856 -0.644967 0.011153 0.007426 0.109602 11.187656 -2.987204 9.899716 19.157409 -5.858796 -0.159572 -8.320669 18.867663 -8.192264 -0.130783 -1.105620 -0.535535
-6.336038 90.726985 426.739963 95.351151 -10.145706 -1.546666 0.628367 0.929704 3.012157 0.009449 0.015599 0.053096 0.016955 0.027969 0.095224 0.528606 0.826224 2.859577 8.289453 23.561813 5.781874 13.430544 7.790228 8.289976 -0.155411 9.093483 0.431793 -0.455877 8.185917 -11.099161 -6.331664 -18.369163 17.659446 -3.806725 -8.772294 -13.710757 2.749643 7.224115 1.278951 0.326346 -3.106840 2.527534 -2.510621 2.259655 0.014853 0.206799 -1.037111 -0.056707 1.470153 17.364360 4.560790 -9.282810 12.770561 -0.246169 -14.352506 -19.431196 -0.597883 0.009557 0.030747 0.108926 10.902860 -3.093286 9.809697 19.092766 -5.678096 -0.127327 -8.126601 18.889837 -7.974358 -0.090977 -1.022110 -0.574297
-6.320839 90.723060 426.660357 95.417881 -10.077726 -1.504972 0.622835 0.873864 2.976977 0.010254 0.015495 0.052711 0.018400 0.027783 0.094538 0.572950 0.821517 2.845711 8.265970 23.546178 5.758995 13.393793 7.762653 8.253716 -0.164935 9.078062 0.435020 -0.481118 8.171639 -11.161985 -6.453959 -18.323451 17.824687 -3.838992 -8.686937 -13.613487 2.761242 7.231956 1.292444 0.372795 -3.051602 2.490287 -2.554967 2.190789 0.024793 0.127906 -0.935430 -0.155680 1.426541 17.331859 4.491091 -9.284060 12.732166 -0.269350 -14.465634 -19.419323 -0.542187 0.006895 0.042092 0.108296 10.637563 -3.200545 9.730207 19.021293 -5.484410 -0.093481 -7.931022 18.894940 -7.765844 -0.054816 -0.935383 -0.598065
-6.303623 90.721048 426.581277 95.449540 -10.035697 -1.471028 0.646449 0.849191 2.949903 0.011105 0.015496 0.052433 0.019927 0.027785 0.094040 0.619277 0.821268 2.833604 8.245913 23.522483 5.737851 13.362551 7.720054 8.219126 -0.163312 9.057973 0.446752 -0.499722 8.160840 -11.246703 -6.591548 -18.287693 18.019957 -3.881216 -8.612581 -13.493204 2.775333 7.236970 1.307838 0.420539 -2.997060 2.456459 -2.597658 2.092942 0.008514 0.066428 -0.864475 -0.234340 1.413547 17.329746 4.430179 -9.277073 12.679784 -0.291016 -14.547079 -19.388946 -0.496109 0.005282 0.043802 0.107366 10.415421 -3.289168 9.669002 18.952789 -5.285841 -0.056666 -7.729050 18.902391 -7.563386 -0.033329 -0.862111 -0.609239
-6.284873 90.721150 426.505205 95.462766 -10.012190 -1.454208 0.683491 0.848378 2.937227 0.011975 0.015620 0.052242 0.021487 0.028007 0.093697 0.666048 0.826619 2.822758 8.229829 23.491345 5.719251 13.337613 7.663523 8.187565 -0.156960 9.035750 0.466290 -0.500785 8.153845 -11.351181 -6.735130 -18.268341 18.233627 -3.947150 -8.544843 -13.343853 2.791008 7.237048 1.325230 0.471233 -2.938958 2.433907 -2.632061 1.966656 -0.042210 0.022002 -0.827822 -0.293578 1.411402 17.348016 4.383817 -9.264920 12.627580 -0.312255 -14.586272 -19.366103 -0.458037 0.004632 0.050573 0.104857 10.237204 -3.362080 9.628659 18.897165 -5.095134 -0.020067 -7.547973 18.906141 -7.376084 -0.021259 -0.795005 -0.605060
